 http://img163.imageshack.us/img163/9624/jinrohthewolfbrigade299.jpg

Screenshoot 
http://img340.imageshack.us/my.php?image=jinrohthewolfbrigademkv.png 
http://img715.imageshack.us/my.php?image=jinrohthewolfbrigademkv.png 
http://img704.imageshack.us/my.php?image=jinrohthewolfbrigademkv.png



Jin-Roh: The Wolf Brigade or simply Jin-Roh (\\u4eba\\u72fc, Jinr\\u014d, lit. \"Man-Wolf\") is a 1999 Japanese animated feature film directed by Hiroyuki Okiura.

The film is the third adaptation of Mamoru Oshii\'s Kerberos saga manga, Ken-Roh Densetsu, after The Red Spectacles released in 1987 and StrayDog: Kerberos Panzer Cops  released in 1991 in Japanese theaters.

The film takes place in Japan during the 1950s where Germany has conquered Japan. Kazuki Fuse, a member of the Panzer Cops with the rank of Corporal, is sentenced for not following an order to kill a suicide bomber. Along the way, he meets Kei, a girl who initially claims to be the suicide bomber\'s sister and they develop a relationship. However, this relationship proves to be dangerous for the Kerberos Corps. Mamoru Oshii, the creator of the Kerberos saga had desired to make Jin-Roh years earlier as a live-action film. However, Oshii decided that the film would be animated, and hired Okiura to direct the film and Production I.G to produce the film. The film premiered on November 17, 1999 in France, and Bandai Entertainment licensed the film for an English-language release in North America and Europe.

The film opens in Tokyo with an evening scene of anti-government protests, interspersed with an adolescent girl walking alone. This girl, Nanami Agawa, is revealed as a terrorist courier – nicknamed Little Red Riding Hood by the military police – a member of a guerrilla group known as the \"Sect\". Her role is to deliver satchel charges. She delivers the charge she carries to another Sect member hidden among regular protesters. The protest slowly turns into a riot, and the guerrilla flings the satchel bomb into the police lines, with the result that the police anti-riot squad charges to break up the riot.



Behind the military line stands a backup force. Instead of regular water cannon trucks, rubber-bullet guns and riot sticks, the military police – bearing the Shutokei (首都警 \"Metropolitan Police\") emblem – is equipped with armored vehicles and sub-machine guns. From his command post carrier, vice-chief Hajime Handa sums up the situation to an adjutant: this joint operation is under jurisdiction of the civilian police, and the military police is not supposed to join until assistance is requested.



The courier goes to pick up another satchel, moving through the sewer system. On the way, Agawa sees heavily armed men of the Special Unit – Panzer Cops – patrolling to find terrorists, and runs away. The Sect guerrillas moving equipment towards their next point are caught at a ladder up to the surface and are slaughtered by the Panzer Cops when one of them panics and fires at the Panzer Cops.



Agawa runs on through the sewers, until she is confronted by Corporal Kazuki Fuse. Kazuki is reluctant to open fire on an apparently unarmed child, causing Agawa to trigger her satchel charge. Kazuki survives the explosion. Meanwhile, above ground, the Self-Police (named \"Metropolitan Police\" in the English version) lose control of the riot after the lights go out – the power supply was cut by the explosion.





General
Complete name                    : C:\\Users\\Fabrizio\\Desktop\\Jin-Roh - The Wolf Brigade (1).mkv
Format                           : Matroska
File size                        : 2.92 GiB
Duration                         : 1h 44mn
Overall bit rate                 : 4 014 Kbps
Encoded date                     : UTC 2010-12-14 14:58:48
Writing application              : mkvmerge v4.3.0 (\'Escape from the Island\') built on Sep  5 2010 10:30:51
Writing library                  : libebml v1.0.0 + libmatroska v1.0.0

Video
ID                               : 1
Format                           : AVC
Format/Info                      : Advanced Video Codec
Format profile                   : High@L5.1
Format settings, CABAC           : Yes
Format settings, ReFrames        : 13 frames
Muxing mode                      : Header stripping
Codec ID                         : V_MPEG4/ISO/AVC
Duration                         : 1h 44mn
Bit rate                         : 3 440 Kbps
Width                            : 1 280 pixels
Height                           : 692 pixels
Display aspect ratio             : 1.850
Frame rate                       : 25.000 fps
Original frame rate              : 23.976 fps
Color space                      : YUV
Chroma subsampling               : 4:2:0
Bit depth                        : 8 bits
Scan type                        : Progressive
Bits/(Pixel*Frame)               : 0.155
Stream size                      : 2.39 GiB (82%)
Writing library                  : x264 core 56 svn-680
Encoding settings                : cabac=1 / ref=10 / deblock=1:-3:-3 / analyse=0x3:0x133 / me=umh / subme=7 / brdo=1 / mixed_ref=1 / me_range=16 / chroma_me=1 / trellis=0 / 8x8dct=1 / cqm=2 / deadzone=9,9 / chroma_qp_offset=0 / threads=6 / nr=0 / decimate=1 / mbaff=0 / bframes=10 / b_pyramid=1 / b_adapt=1 / b_bias=0 / direct=1 / wpredb=1 / bime=1 / keyint=250 / keyint_min=25 / scenecut=40(pre) / rc=2pass / bitrate=3440 / ratetol=1.0 / rceq=\'blurCplx^(1-qComp)\' / qcomp=0.60 / qpmin=10 / qpmax=51 / qpstep=4 / cplxblur=20.0 / qblur=0.5 / ip_ratio=1.40 / pb_ratio=1.30 / aq=1:0.7:15.0

Audio #1
ID                               : 2
Format                           : AC-3
Format/Info                      : Audio Coding 3
Mode extension                   : CM (complete main)
Muxing mode                      : Header stripping
Codec ID                         : A_AC3
Duration                         : 1h 44mn
Bit rate mode                    : Constant
Bit rate                         : 448 Kbps
Channel(s)                       : 6 channels
Channel positions                : Front: L C R, Side: L R, LFE
Sampling rate                    : 48.0 KHz
Bit depth                        : 16 bits
Video delay                      : 20ms
Stream size                      : 333 MiB (11%)
Title                            : Italian
Language                         : Italian

Audio #2
ID                               : 3
Format                           : AC-3
Format/Info                      : Audio Coding 3
Mode extension                   : CM (complete main)
Muxing mode                      : Header stripping
Codec ID                         : A_AC3
Duration                         : 1h 44mn
Bit rate mode                    : Constant
Bit rate                         : 192 Kbps
Channel(s)                       : 2 channels
Channel positions                : Front: L R
Sampling rate                    : 48.0 KHz
Bit depth                        : 16 bits
Video delay                      : 20ms
Stream size                      : 143 MiB (5%)
Title                            : Japanese
Language                         : Japanese

Text #1
ID                               : 4
Format                           : UTF-8
Codec ID                         : S_TEXT/UTF8
Codec ID/Info                    : UTF-8 Plain Text
Title                            : Italian
Language                         : Italian

Text #2
ID                               : 5
Format                           : UTF-8
Codec ID                         : S_TEXT/UTF8
Codec ID/Info                    : UTF-8 Plain Text
Title                            : English
Language                         : English